<svg width="190" height="48" viewBox="0 0 190 48" fill="none" xmlns="http://www.w3.org/2000/svg">
<g clip-path="url(#clip0_136_145886)">
<path d="M8.00329 0H39.9967C44.4232 0 48 3.59506 48 8V40C48 44.4247 44.4232 48 39.9967 48H8.00329C3.57678 48 0 44.4247 0 40V8C0 3.57531 3.57678 0 8.00329 0Z" fill="white"/>
<path d="M7.73149 24H4V39.7091H7.73149V24Z" fill="#56504C"/>
<path d="M24.4354 27.5876C22.1452 27.5876 20.4472 28.1695 19.5193 28.6931L20.2103 31.001C21.0593 30.4967 22.5006 30.0507 23.8036 30.0507C25.9754 30.0507 26.4492 31.1367 26.4492 31.6798V31.8155C21.6121 31.7961 18.6309 33.3283 18.6309 36.3731C18.6309 38.1573 20.0721 39.9804 22.7375 39.9804C24.3169 39.9804 25.6595 39.4179 26.4887 38.4676H26.5282L26.9428 39.6895H29.9833V32.727C29.9833 29.9149 28.5618 27.5876 24.4354 27.5876ZM26.5677 35.3646C26.5677 35.5586 26.5479 35.7719 26.5084 35.9658C26.5084 35.9852 26.469 36.0822 26.469 36.0822C26.469 36.1016 26.4492 36.121 26.4492 36.1404C26.1136 36.9161 25.2449 37.6337 24.0603 37.6337C23.0336 37.6337 22.3229 37.1101 22.3229 36.121C22.3229 35.0155 23.2903 34.4337 24.7315 34.2204C25.0672 34.1622 25.4423 34.1428 25.8372 34.1234C26.0741 34.1234 26.3308 34.104 26.5677 34.1234V35.3646Z" fill="#56504C"/>
<path d="M40.2882 27.9369V34.8411C40.2882 35.1126 40.2487 35.3648 40.1698 35.5975C39.8736 36.3151 39.1431 37.1102 37.919 37.1102C36.3988 37.1102 35.7275 36.0048 35.7275 34.1817V27.9563H32.0947V34.8411C32.0947 35.772 32.2132 36.5478 32.4304 37.1878C32.6475 37.8278 32.9634 38.3708 33.3583 38.7781C33.7532 39.2048 34.227 39.5151 34.7601 39.709C35.3129 39.903 35.9052 39.9999 36.5765 39.9999C37.149 39.9999 37.6623 39.9223 38.0967 39.7866C38.5311 39.6508 38.9259 39.4763 39.2418 39.2823C39.5577 39.0884 39.8341 38.8751 40.0513 38.6617C40.2685 38.429 40.4462 38.2351 40.5646 38.0605L41.0385 39.7284H44V27.9563H40.2882V27.9369Z" fill="#56504C"/>
<path d="M11.2272 24V27.937H9.5293V30.6133H11.2272V35.4036C11.2272 36.9939 11.5431 38.177 12.2539 38.8945C12.8462 39.5345 13.9123 40 15.1759 40C16.2618 40 16.6961 39.8448 17.1897 39.6509V36.9164C17.091 36.9551 16.7948 37.0133 16.4197 37.0133C15.1364 37.0133 14.8205 36.2182 14.8205 34.783V30.6133H17.17V27.937H14.86V24H11.2272Z" fill="#56504C"/>
<path fill-rule="evenodd" clip-rule="evenodd" d="M38.907 24L36.6562 27.1806H39.2624L42.4213 24H38.907Z" fill="#56504C"/>
<path d="M72.044 40V27.85H74.87V40H72.044ZM80.8179 40.18C79.7139 40.18 78.8799 39.898 78.3159 39.334C77.7519 38.758 77.4699 37.906 77.4699 36.778V32.692H76.0299V30.604H77.4699V28.156H80.2059V30.604H82.1859V32.692H80.2059V36.526C80.2059 37.03 80.3079 37.402 80.5119 37.642C80.7159 37.882 81.0339 38.002 81.4659 38.002C81.8019 38.002 82.1139 37.942 82.4019 37.822V39.928C81.8259 40.096 81.2979 40.18 80.8179 40.18ZM86.4824 40.234C85.5464 40.234 84.7964 39.982 84.2324 39.478C83.6804 38.974 83.4044 38.308 83.4044 37.48C83.4044 36.412 83.8184 35.584 84.6464 34.996C85.4744 34.396 86.6444 34.096 88.1564 34.096C88.2884 34.096 88.4204 34.102 88.5524 34.114C88.6844 34.114 88.8164 34.12 88.9484 34.132C88.8884 33.592 88.6904 33.196 88.3544 32.944C88.0304 32.68 87.5504 32.548 86.9144 32.548C86.0384 32.548 85.1504 32.782 84.2504 33.25V31.108C85.2104 30.616 86.2484 30.37 87.3644 30.37C88.6964 30.37 89.7224 30.724 90.4424 31.432C91.1744 32.14 91.5404 33.154 91.5404 34.474V40H89.3084L89.1644 39.01C88.8884 39.394 88.5104 39.694 88.0304 39.91C87.5624 40.126 87.0464 40.234 86.4824 40.234ZM87.2924 38.362C87.7604 38.362 88.1564 38.194 88.4804 37.858C88.8044 37.522 88.9664 37.108 88.9664 36.616V35.824C88.8584 35.812 88.7444 35.806 88.6244 35.806C88.5164 35.806 88.4024 35.806 88.2824 35.806C87.5504 35.806 86.9804 35.926 86.5724 36.166C86.1764 36.394 85.9784 36.724 85.9784 37.156C85.9784 37.528 86.0984 37.822 86.3384 38.038C86.5784 38.254 86.8964 38.362 87.2924 38.362ZM96.2664 40.234C95.3064 40.234 94.5384 39.904 93.9624 39.244C93.3864 38.572 93.0984 37.684 93.0984 36.58V30.604H95.8344V36.13C95.8344 36.73 95.9544 37.192 96.1944 37.516C96.4464 37.84 96.8004 38.002 97.2564 38.002C97.7124 38.002 98.0724 37.84 98.3364 37.516C98.6124 37.18 98.7504 36.724 98.7504 36.148V30.604H101.486V40H99.0924L98.9484 38.974C98.6364 39.382 98.2464 39.694 97.7784 39.91C97.3224 40.126 96.8184 40.234 96.2664 40.234ZM98.2644 29.452H95.8884L97.8504 26.59H100.784L98.2644 29.452ZM103.762 27.85H106.822C108.202 27.85 109.288 28.168 110.08 28.804C110.884 29.44 111.286 30.304 111.286 31.396C111.286 32.56 110.884 33.472 110.08 34.132C109.288 34.78 108.178 35.104 106.75 35.104H104.824V40H103.762V27.85ZM104.824 28.75V34.204H106.75C107.842 34.204 108.688 33.964 109.288 33.484C109.888 33.004 110.188 32.332 110.188 31.468C110.188 30.604 109.894 29.938 109.306 29.47C108.718 28.99 107.872 28.75 106.768 28.75H104.824ZM113.058 30.784H113.976L114.048 32.206C114.264 31.702 114.576 31.312 114.984 31.036C115.404 30.748 115.872 30.604 116.388 30.604C116.7 30.604 116.976 30.646 117.216 30.73V31.684C116.976 31.6 116.694 31.558 116.37 31.558C115.686 31.558 115.134 31.834 114.714 32.386C114.306 32.938 114.102 33.67 114.102 34.582V40H113.058V30.784ZM118.982 30.784H120.026V40H118.982V30.784ZM119.504 28.678C119.288 28.678 119.102 28.606 118.946 28.462C118.802 28.306 118.73 28.12 118.73 27.904C118.73 27.688 118.802 27.508 118.946 27.364C119.102 27.208 119.288 27.13 119.504 27.13C119.72 27.13 119.9 27.208 120.044 27.364C120.2 27.508 120.278 27.688 120.278 27.904C120.278 28.12 120.2 28.306 120.044 28.462C119.9 28.606 119.72 28.678 119.504 28.678ZM121.508 30.784H122.66L125.468 38.794L128.276 30.784H129.374L125.954 40H124.928L121.508 30.784ZM133.067 40.234C132.191 40.234 131.489 39.994 130.961 39.514C130.433 39.034 130.169 38.392 130.169 37.588C130.169 36.568 130.595 35.788 131.447 35.248C132.311 34.708 133.559 34.438 135.191 34.438C135.323 34.438 135.455 34.438 135.587 34.438C135.719 34.438 135.845 34.444 135.965 34.456V34.384C135.965 33.4 135.767 32.674 135.371 32.206C134.975 31.726 134.369 31.486 133.553 31.486C132.617 31.486 131.729 31.768 130.889 32.332V31.36C131.717 30.82 132.635 30.55 133.643 30.55C134.723 30.55 135.551 30.874 136.127 31.522C136.715 32.158 137.009 33.076 137.009 34.276V40H136.091L136.019 38.65C135.743 39.142 135.335 39.532 134.795 39.82C134.267 40.096 133.691 40.234 133.067 40.234ZM133.229 39.37C133.745 39.37 134.213 39.238 134.633 38.974C135.053 38.71 135.377 38.374 135.605 37.966C135.845 37.558 135.965 37.12 135.965 36.652V35.32C135.749 35.308 135.443 35.302 135.047 35.302C133.799 35.302 132.845 35.488 132.185 35.86C131.537 36.232 131.213 36.778 131.213 37.498C131.213 38.062 131.393 38.518 131.753 38.866C132.125 39.202 132.617 39.37 133.229 39.37ZM142.234 40.18C141.454 40.18 140.86 39.952 140.452 39.496C140.056 39.028 139.858 38.356 139.858 37.48V31.648H138.31V30.784H139.858V28.21H140.902V30.784H143.278V31.648H140.902V37.444C140.902 38.08 141.022 38.548 141.262 38.848C141.502 39.136 141.874 39.28 142.378 39.28C142.75 39.28 143.152 39.172 143.584 38.956V39.856C143.188 40.072 142.738 40.18 142.234 40.18ZM148.615 40.234C147.331 40.234 146.311 39.796 145.555 38.92C144.811 38.044 144.439 36.856 144.439 35.356C144.439 34.372 144.601 33.52 144.925 32.8C145.261 32.068 145.723 31.51 146.311 31.126C146.899 30.742 147.577 30.55 148.345 30.55C149.449 30.55 150.313 30.946 150.937 31.738C151.573 32.53 151.891 33.622 151.891 35.014V35.644H145.465C145.525 36.784 145.837 37.678 146.401 38.326C146.965 38.962 147.733 39.28 148.705 39.28C149.701 39.28 150.583 39.004 151.351 38.452V39.442C150.571 39.97 149.659 40.234 148.615 40.234ZM148.291 31.468C147.463 31.468 146.803 31.756 146.311 32.332C145.831 32.908 145.555 33.724 145.483 34.78H150.901C150.877 33.736 150.637 32.926 150.181 32.35C149.725 31.762 149.095 31.468 148.291 31.468ZM153.895 27.85H157.171C158.395 27.85 159.367 28.126 160.087 28.678C160.807 29.23 161.167 29.974 161.167 30.91C161.167 32.266 160.507 33.178 159.187 33.646C159.967 33.874 160.561 34.24 160.969 34.744C161.389 35.236 161.599 35.83 161.599 36.526C161.599 37.642 161.191 38.5 160.375 39.1C159.571 39.7 158.407 40 156.883 40H153.895V27.85ZM156.865 39.1C158.065 39.1 158.977 38.89 159.601 38.47C160.225 38.05 160.537 37.426 160.537 36.598C160.537 35.818 160.231 35.218 159.619 34.798C159.007 34.366 158.131 34.15 156.991 34.15H154.939V39.1H156.865ZM156.955 33.25C157.987 33.25 158.773 33.058 159.313 32.674C159.853 32.29 160.123 31.726 160.123 30.982C160.123 30.274 159.859 29.728 159.331 29.344C158.815 28.948 158.083 28.75 157.135 28.75H154.939V33.25H156.955ZM166.026 40.234C165.15 40.234 164.448 39.994 163.92 39.514C163.392 39.034 163.128 38.392 163.128 37.588C163.128 36.568 163.554 35.788 164.406 35.248C165.27 34.708 166.518 34.438 168.15 34.438C168.282 34.438 168.414 34.438 168.546 34.438C168.678 34.438 168.804 34.444 168.924 34.456V34.384C168.924 33.4 168.726 32.674 168.33 32.206C167.934 31.726 167.328 31.486 166.512 31.486C165.576 31.486 164.688 31.768 163.848 32.332V31.36C164.676 30.82 165.594 30.55 166.602 30.55C167.682 30.55 168.51 30.874 169.086 31.522C169.674 32.158 169.968 33.076 169.968 34.276V40H169.05L168.978 38.65C168.702 39.142 168.294 39.532 167.754 39.82C167.226 40.096 166.65 40.234 166.026 40.234ZM166.188 39.37C166.704 39.37 167.172 39.238 167.592 38.974C168.012 38.71 168.336 38.374 168.564 37.966C168.804 37.558 168.924 37.12 168.924 36.652V35.32C168.708 35.308 168.402 35.302 168.006 35.302C166.758 35.302 165.804 35.488 165.144 35.86C164.496 36.232 164.172 36.778 164.172 37.498C164.172 38.062 164.352 38.518 164.712 38.866C165.084 39.202 165.576 39.37 166.188 39.37ZM172.349 30.784H173.267L173.339 32.17C173.639 31.654 174.041 31.258 174.545 30.982C175.049 30.694 175.613 30.55 176.237 30.55C177.209 30.55 177.983 30.886 178.559 31.558C179.135 32.218 179.423 33.118 179.423 34.258V40H178.379V34.402C178.379 33.478 178.169 32.764 177.749 32.26C177.341 31.744 176.765 31.486 176.021 31.486C175.241 31.486 174.605 31.756 174.113 32.296C173.633 32.836 173.393 33.532 173.393 34.384V40H172.349V30.784ZM182.85 35.176V40H181.806V26.59H182.85V34.618L186.954 30.784H188.25L183.84 34.87L188.88 40H187.53L182.85 35.176Z" fill="white"/>
</g>
<defs>
<clipPath id="clip0_136_145886">
<rect width="190" height="48" fill="white"/>
</clipPath>
</defs>
</svg>
